<svg width="65" height="76" viewBox="0 0 65 76" fill="none" xmlns="http://www.w3.org/2000/svg">
<path d="M40.6381 21.4647C43.091 21.4668 45.5159 21.9575 47.7545 22.9045C49.9931 23.8516 51.9954 25.2339 53.6306 26.9612L58.75 22.6007C55.4731 19.1578 51.174 16.728 46.4135 15.6285C41.6531 14.5289 36.6525 14.8107 32.064 16.437C27.4756 18.0633 23.5125 20.9585 20.692 24.7449C17.8714 28.5315 16.3244 33.0332 16.2526 37.663C16.1809 42.2926 17.5879 46.8354 20.2899 50.6981C22.992 54.561 26.8636 57.5646 31.3997 59.3171C35.9357 61.0695 40.9256 61.4894 45.7181 60.5221C50.5105 59.5547 54.8831 57.2448 58.2652 53.894L53.2621 49.4052C51.2691 51.3744 48.7907 52.8463 46.0486 53.6893C43.3065 54.5323 40.3859 54.7203 37.5481 54.2362C34.7102 53.7522 32.0437 52.6114 29.7866 50.9157C27.5295 49.2199 25.7522 47.0223 24.6139 44.519C23.4754 42.0157 23.0111 39.2849 23.2626 36.5708C23.5142 33.8565 24.4736 31.2435 26.0551 28.9654C27.6367 26.6871 29.7911 24.8146 32.3259 23.5154C34.8605 22.216 37.6964 21.5304 40.5801 21.5197L40.6381 21.4647Z" fill="#AC32E4"/>
<path d="M17.5 16.0168L12.4493 11.5152C8.50363 14.9872 5.37275 19.1143 3.23625 23.6594C1.09988 28.2044 0 33.078 0 38C0 42.9221 1.09988 47.7956 3.23625 52.3406C5.37275 56.8858 8.50363 61.0128 12.4493 64.4849L17.5 59.9833C14.2104 57.1087 11.5986 53.6855 9.816 49.9119C8.0335 46.1384 7.11563 42.0895 7.11563 38C7.11563 33.9105 8.0335 29.8617 9.816 26.0882C11.5986 22.3145 14.2104 18.8913 17.5 16.0168Z" fill="#4801FF"/>
<path d="M65 7.45643C58.1134 2.60268 49.7919 -0.00987498 41.25 2.80497e-05V6.53591C48.2981 6.52969 55.1657 8.67681 60.8596 12.6667L65 7.45643Z" fill="#4801FF"/>
<path d="M41.25 69.5522V76C49.2402 76.0083 57.0596 73.8622 63.75 69.8247L59.8199 64.4849C54.2913 67.8001 47.8403 69.5605 41.25 69.5522Z" fill="#4801FF"/>
<path d="M41.25 61.5887C35.8372 61.5854 30.5562 60.0942 26.122 57.3168C21.6876 54.5395 18.3141 50.61 16.4579 46.0606L10 48.744C12.4319 54.3938 16.7194 59.2519 22.2977 62.6784C27.8761 66.1049 34.4836 67.9391 41.25 67.9394V61.5887Z" fill="#7918F2"/>
<path d="M15.6462 36.8485C16.0655 30.791 18.9448 25.1087 23.6996 20.9546C28.4545 16.8006 34.729 14.4859 41.25 14.48V8.06064C32.8991 8.06041 24.8679 11.0488 18.8182 16.4074C12.7686 21.7661 9.16375 29.0847 8.75 36.8485H15.6462Z" fill="#7918F2"/>
</svg>
