<svg width="324" height="112" viewBox="0 0 324 112" fill="none" xmlns="http://www.w3.org/2000/svg">
<path d="M93.248 65.08C94.928 65.08 96.488 64.744 97.928 64.072C99.416 63.4 100.832 62.344 102.176 60.904L108.08 67.024C106.16 69.136 103.856 70.792 101.168 71.992C98.48 73.144 95.696 73.72 92.816 73.72C90.08 73.72 87.488 73.216 85.04 72.208C82.64 71.2 80.552 69.832 78.776 68.104C77.048 66.376 75.68 64.336 74.672 61.984C73.664 59.584 73.16 57.016 73.16 54.28C73.16 51.544 73.664 49 74.672 46.648C75.68 44.248 77.048 42.184 78.776 40.456C80.552 38.68 82.64 37.288 85.04 36.28C87.488 35.272 90.08 34.768 92.816 34.768C95.792 34.768 98.648 35.368 101.384 36.568C104.12 37.72 106.448 39.352 108.368 41.464L102.32 47.872C100.976 46.384 99.536 45.256 98 44.488C96.464 43.72 94.808 43.336 93.032 43.336C90.2 43.336 87.8 44.392 85.832 46.504C83.912 48.616 82.952 51.208 82.952 54.28C82.952 57.352 83.936 59.92 85.904 61.984C87.92 64.048 90.368 65.08 93.248 65.08ZM110.074 54.28C110.074 51.544 110.578 49 111.586 46.648C112.642 44.248 114.058 42.184 115.834 40.456C117.658 38.68 119.794 37.288 122.242 36.28C124.69 35.272 127.306 34.768 130.09 34.768C132.874 34.768 135.49 35.272 137.938 36.28C140.386 37.288 142.498 38.68 144.274 40.456C146.098 42.184 147.514 44.248 148.522 46.648C149.578 49 150.106 51.544 150.106 54.28C150.106 57.016 149.578 59.584 148.522 61.984C147.514 64.336 146.098 66.376 144.274 68.104C142.498 69.832 140.386 71.2 137.938 72.208C135.49 73.216 132.874 73.72 130.09 73.72C127.306 73.72 124.69 73.216 122.242 72.208C119.794 71.2 117.658 69.832 115.834 68.104C114.058 66.376 112.642 64.336 111.586 61.984C110.578 59.584 110.074 57.016 110.074 54.28ZM130.09 65.152C132.97 65.152 135.418 64.096 137.434 61.984C139.45 59.872 140.458 57.304 140.458 54.28C140.458 51.208 139.45 48.616 137.434 46.504C135.418 44.392 132.97 43.336 130.09 43.336C127.21 43.336 124.762 44.392 122.746 46.504C120.73 48.616 119.722 51.208 119.722 54.28C119.722 57.304 120.73 59.872 122.746 61.984C124.762 64.096 127.21 65.152 130.09 65.152ZM161.065 31.024C159.529 31.024 158.209 30.472 157.105 29.368C156.001 28.264 155.449 26.944 155.449 25.408C155.449 23.872 156.001 22.552 157.105 21.448C158.209 20.344 159.529 19.792 161.065 19.792C162.601 19.792 163.921 20.344 165.025 21.448C166.129 22.552 166.681 23.872 166.681 25.408C166.681 26.944 166.129 28.264 165.025 29.368C163.921 30.472 162.601 31.024 161.065 31.024ZM166.033 35.488V73H156.169V35.488H166.033ZM173.747 73V35.488H183.611V38.44C185.051 37.24 186.635 36.328 188.363 35.704C190.139 35.08 192.059 34.768 194.123 34.768C198.443 34.768 201.995 36.16 204.779 38.944C207.563 41.728 208.955 45.304 208.955 49.672V73H199.091V51.112C199.091 48.76 198.371 46.864 196.931 45.424C195.539 43.984 193.667 43.264 191.315 43.264C189.683 43.264 188.195 43.6 186.851 44.272C185.555 44.896 184.475 45.808 183.611 47.008V73H173.747ZM221.323 31.024C219.787 31.024 218.467 30.472 217.363 29.368C216.259 28.264 215.707 26.944 215.707 25.408C215.707 23.872 216.259 22.552 217.363 21.448C218.467 20.344 219.787 19.792 221.323 19.792C222.859 19.792 224.179 20.344 225.283 21.448C226.387 22.552 226.939 23.872 226.939 25.408C226.939 26.944 226.387 28.264 225.283 29.368C224.179 30.472 222.859 31.024 221.323 31.024ZM226.291 35.488V73H216.427V35.488H226.291ZM232.061 73V66.016L250.925 43.768H232.205V35.488H263.597V42.472L244.589 64.72H264.029V73H232.061ZM302.434 68.32C300.13 70.192 297.754 71.56 295.306 72.424C292.906 73.288 290.218 73.72 287.242 73.72C284.41 73.72 281.746 73.216 279.25 72.208C276.802 71.2 274.666 69.832 272.842 68.104C271.066 66.376 269.65 64.336 268.594 61.984C267.586 59.584 267.082 57.016 267.082 54.28C267.082 51.592 267.562 49.072 268.522 46.72C269.53 44.32 270.898 42.256 272.626 40.528C274.354 38.752 276.394 37.36 278.746 36.352C281.146 35.344 283.69 34.84 286.378 34.84C289.018 34.84 291.466 35.368 293.722 36.424C296.026 37.432 297.994 38.824 299.626 40.6C301.306 42.376 302.602 44.512 303.514 47.008C304.474 49.456 304.954 52.12 304.954 55V57.592H277.018C277.69 59.944 278.986 61.84 280.906 63.28C282.826 64.72 285.082 65.44 287.674 65.44C289.306 65.44 290.842 65.176 292.282 64.648C293.722 64.12 294.946 63.376 295.954 62.416L302.434 68.32ZM286.162 42.976C283.906 42.976 281.962 43.672 280.33 45.064C278.698 46.408 277.57 48.232 276.946 50.536H295.306C294.682 48.328 293.53 46.528 291.85 45.136C290.218 43.696 288.322 42.976 286.162 42.976Z" fill="#FBFBFB"/>
<path d="M40.6381 39.4647C43.091 39.4668 45.5159 39.9575 47.7545 40.9045C49.9931 41.8516 51.9954 43.2339 53.6306 44.9612L58.75 40.6007C55.4731 37.1578 51.174 34.728 46.4135 33.6285C41.6531 32.5289 36.6525 32.8107 32.064 34.437C27.4756 36.0633 23.5125 38.9585 20.692 42.7449C17.8714 46.5315 16.3244 51.0332 16.2526 55.663C16.1809 60.2926 17.5879 64.8354 20.2899 68.6981C22.992 72.561 26.8636 75.5646 31.3997 77.3171C35.9357 79.0695 40.9256 79.4894 45.7181 78.5221C50.5105 77.5547 54.8831 75.2448 58.2652 71.894L53.2621 67.4052C51.2691 69.3744 48.7907 70.8463 46.0486 71.6893C43.3065 72.5323 40.3859 72.7203 37.5481 72.2362C34.7102 71.7522 32.0437 70.6114 29.7866 68.9157C27.5295 67.2199 25.7522 65.0223 24.6139 62.519C23.4754 60.0157 23.0111 57.2849 23.2626 54.5708C23.5142 51.8565 24.4736 49.2435 26.0551 46.9654C27.6367 44.6871 29.7911 42.8146 32.3259 41.5154C34.8605 40.216 37.6964 39.5304 40.5801 39.5197L40.6381 39.4647Z" fill="#AC32E4"/>
<path d="M17.5 34.0168L12.4493 29.5152C8.50363 32.9872 5.37275 37.1143 3.23625 41.6594C1.09988 46.2044 0 51.078 0 56C0 60.9221 1.09988 65.7956 3.23625 70.3406C5.37275 74.8858 8.50363 79.0128 12.4493 82.4849L17.5 77.9833C14.2104 75.1087 11.5986 71.6855 9.816 67.9119C8.0335 64.1384 7.11563 60.0895 7.11563 56C7.11563 51.9105 8.0335 47.8617 9.816 44.0882C11.5986 40.3145 14.2104 36.8913 17.5 34.0168Z" fill="#4801FF"/>
<path d="M65 25.4564C58.1134 20.6027 49.7919 17.9901 41.25 18V24.5359C48.2981 24.5297 55.1657 26.6768 60.8596 30.6667L65 25.4564Z" fill="#4801FF"/>
<path d="M41.25 87.5522V94C49.2402 94.0083 57.0596 91.8622 63.75 87.8247L59.8199 82.4849C54.2913 85.8001 47.8403 87.5605 41.25 87.5522Z" fill="#4801FF"/>
<path d="M41.25 79.5887C35.8372 79.5854 30.5562 78.0942 26.122 75.3168C21.6876 72.5395 18.3141 68.61 16.4579 64.0606L10 66.744C12.4319 72.3938 16.7194 77.2519 22.2977 80.6784C27.8761 84.1049 34.4836 85.9391 41.25 85.9394V79.5887Z" fill="#7918F2"/>
<path d="M15.6462 54.8485C16.0655 48.791 18.9448 43.1087 23.6996 38.9546C28.4545 34.8006 34.729 32.4859 41.25 32.48V26.0606C32.8991 26.0604 24.8679 29.0488 18.8182 34.4074C12.7686 39.7661 9.16375 47.0847 8.75 54.8485H15.6462Z" fill="#7918F2"/>
</svg>
