<svg width="324" height="112" viewBox="0 0 324 112" fill="none" xmlns="http://www.w3.org/2000/svg">
<path d="M93.608 63.64C95.192 63.64 96.656 63.304 98 62.632C99.344 61.96 100.64 60.928 101.888 59.536L108.8 66.736C106.88 68.944 104.528 70.672 101.744 71.92C98.96 73.12 96.056 73.72 93.032 73.72C90.2 73.72 87.536 73.216 85.04 72.208C82.592 71.2 80.456 69.808 78.632 68.032C76.856 66.256 75.44 64.168 74.384 61.768C73.376 59.368 72.872 56.776 72.872 53.992C72.872 51.208 73.376 48.616 74.384 46.216C75.44 43.768 76.856 41.68 78.632 39.952C80.456 38.176 82.592 36.784 85.04 35.776C87.536 34.72 90.2 34.192 93.032 34.192C96.152 34.192 99.128 34.816 101.96 36.064C104.792 37.312 107.192 39.04 109.16 41.248L102.032 48.664C100.688 47.176 99.32 46.072 97.928 45.352C96.536 44.632 95 44.272 93.32 44.272C90.824 44.272 88.712 45.208 86.984 47.08C85.304 48.952 84.464 51.256 84.464 53.992C84.464 56.728 85.328 59.032 87.056 60.904C88.832 62.728 91.016 63.64 93.608 63.64ZM110.278 53.992C110.278 51.256 110.806 48.688 111.862 46.288C112.966 43.84 114.43 41.728 116.254 39.952C118.126 38.176 120.31 36.784 122.806 35.776C125.35 34.72 128.062 34.192 130.942 34.192C133.822 34.192 136.51 34.72 139.006 35.776C141.55 36.784 143.734 38.176 145.558 39.952C147.43 41.728 148.894 43.84 149.95 46.288C151.054 48.688 151.606 51.256 151.606 53.992C151.606 56.728 151.054 59.32 149.95 61.768C148.894 64.168 147.43 66.256 145.558 68.032C143.734 69.808 141.55 71.2 139.006 72.208C136.51 73.216 133.822 73.72 130.942 73.72C128.062 73.72 125.35 73.216 122.806 72.208C120.31 71.2 118.126 69.808 116.254 68.032C114.43 66.256 112.966 64.168 111.862 61.768C110.806 59.32 110.278 56.728 110.278 53.992ZM130.942 63.64C133.534 63.64 135.718 62.704 137.494 60.832C139.318 58.96 140.23 56.68 140.23 53.992C140.23 51.256 139.318 48.952 137.494 47.08C135.718 45.208 133.534 44.272 130.942 44.272C128.35 44.272 126.142 45.208 124.318 47.08C122.542 48.952 121.654 51.256 121.654 53.992C121.654 56.68 122.542 58.96 124.318 60.832C126.142 62.704 128.35 63.64 130.942 63.64ZM162.909 31.384C161.133 31.384 159.621 30.76 158.373 29.512C157.125 28.264 156.501 26.752 156.501 24.976C156.501 23.2 157.125 21.688 158.373 20.44C159.621 19.192 161.133 18.568 162.909 18.568C164.685 18.568 166.197 19.192 167.445 20.44C168.693 21.688 169.317 23.2 169.317 24.976C169.317 26.752 168.693 28.264 167.445 29.512C166.197 30.76 164.685 31.384 162.909 31.384ZM168.741 34.912V73H157.077V34.912H168.741ZM175.92 73V34.912H187.584V37.504C188.976 36.448 190.536 35.632 192.264 35.056C194.04 34.48 195.888 34.192 197.808 34.192C202.272 34.192 205.92 35.632 208.752 38.512C211.584 41.392 213 45.064 213 49.528V73H201.336V51.112C201.336 49.048 200.688 47.392 199.392 46.144C198.144 44.848 196.488 44.2 194.424 44.2C192.936 44.2 191.616 44.464 190.464 44.992C189.312 45.52 188.352 46.264 187.584 47.224V73H175.92ZM225.768 31.384C223.992 31.384 222.48 30.76 221.232 29.512C219.984 28.264 219.36 26.752 219.36 24.976C219.36 23.2 219.984 21.688 221.232 20.44C222.48 19.192 223.992 18.568 225.768 18.568C227.544 18.568 229.056 19.192 230.304 20.44C231.552 21.688 232.176 23.2 232.176 24.976C232.176 26.752 231.552 28.264 230.304 29.512C229.056 30.76 227.544 31.384 225.768 31.384ZM231.6 34.912V73H219.936V34.912H231.6ZM236.98 73V64.864L254.692 44.632H237.124V34.912H269.812V43.048L252.028 63.28H270.388V73H236.98ZM309.629 67.96C307.229 69.976 304.757 71.44 302.213 72.352C299.717 73.264 296.885 73.72 293.717 73.72C290.837 73.72 288.125 73.216 285.581 72.208C283.037 71.2 280.829 69.808 278.957 68.032C277.133 66.256 275.669 64.168 274.565 61.768C273.509 59.32 272.981 56.728 272.981 53.992C272.981 51.256 273.485 48.688 274.493 46.288C275.549 43.84 276.965 41.728 278.741 39.952C280.517 38.176 282.605 36.784 285.005 35.776C287.453 34.768 290.069 34.264 292.853 34.264C295.637 34.264 298.205 34.792 300.557 35.848C302.909 36.904 304.925 38.344 306.605 40.168C308.333 41.992 309.677 44.2 310.637 46.792C311.597 49.336 312.077 52.096 312.077 55.072V57.952H284.933C285.701 59.728 286.901 61.192 288.533 62.344C290.165 63.448 292.085 64 294.293 64C295.877 64 297.317 63.76 298.613 63.28C299.909 62.752 301.013 62.032 301.925 61.12L309.629 67.96ZM292.637 43.768C290.717 43.768 289.061 44.296 287.669 45.352C286.277 46.408 285.293 47.896 284.717 49.816H300.629C300.005 47.992 298.973 46.528 297.533 45.424C296.141 44.32 294.509 43.768 292.637 43.768Z" fill="#FBFBFB"/>
<path d="M40.6381 39.4647C43.091 39.4668 45.5159 39.9575 47.7545 40.9045C49.9931 41.8516 51.9954 43.2339 53.6306 44.9612L58.75 40.6007C55.4731 37.1578 51.174 34.728 46.4135 33.6285C41.6531 32.5289 36.6525 32.8107 32.064 34.437C27.4756 36.0633 23.5125 38.9585 20.692 42.7449C17.8714 46.5315 16.3244 51.0332 16.2526 55.663C16.1809 60.2926 17.5879 64.8354 20.2899 68.6981C22.992 72.561 26.8636 75.5646 31.3997 77.3171C35.9357 79.0695 40.9256 79.4894 45.7181 78.5221C50.5105 77.5547 54.8831 75.2448 58.2652 71.894L53.2621 67.4052C51.2691 69.3744 48.7907 70.8463 46.0486 71.6893C43.3065 72.5323 40.3859 72.7203 37.5481 72.2362C34.7102 71.7522 32.0437 70.6114 29.7866 68.9157C27.5295 67.2199 25.7522 65.0223 24.6139 62.519C23.4754 60.0157 23.0111 57.2849 23.2626 54.5708C23.5142 51.8565 24.4736 49.2435 26.0551 46.9654C27.6367 44.6871 29.7911 42.8146 32.3259 41.5154C34.8605 40.216 37.6964 39.5304 40.5801 39.5197L40.6381 39.4647Z" fill="#AC32E4"/>
<path d="M17.5 34.0168L12.4493 29.5152C8.50363 32.9872 5.37275 37.1143 3.23625 41.6594C1.09988 46.2044 0 51.078 0 56C0 60.9221 1.09988 65.7956 3.23625 70.3406C5.37275 74.8858 8.50363 79.0128 12.4493 82.4849L17.5 77.9833C14.2104 75.1087 11.5986 71.6855 9.816 67.9119C8.0335 64.1384 7.11563 60.0895 7.11563 56C7.11563 51.9105 8.0335 47.8617 9.816 44.0882C11.5986 40.3145 14.2104 36.8913 17.5 34.0168Z" fill="#4801FF"/>
<path d="M65 25.4564C58.1134 20.6027 49.7919 17.9901 41.25 18V24.5359C48.2981 24.5297 55.1657 26.6768 60.8596 30.6667L65 25.4564Z" fill="#4801FF"/>
<path d="M41.25 87.5522V94C49.2402 94.0083 57.0596 91.8622 63.75 87.8247L59.8199 82.4849C54.2913 85.8001 47.8403 87.5605 41.25 87.5522Z" fill="#4801FF"/>
<path d="M41.25 79.5887C35.8372 79.5854 30.5562 78.0942 26.122 75.3168C21.6876 72.5395 18.3141 68.61 16.4579 64.0606L10 66.744C12.4319 72.3938 16.7194 77.2519 22.2977 80.6784C27.8761 84.1049 34.4836 85.9391 41.25 85.9394V79.5887Z" fill="#7918F2"/>
<path d="M15.6462 54.8485C16.0655 48.791 18.9448 43.1087 23.6996 38.9546C28.4545 34.8006 34.729 32.4859 41.25 32.48V26.0606C32.8991 26.0604 24.8679 29.0488 18.8182 34.4074C12.7686 39.7661 9.16375 47.0847 8.75 54.8485H15.6462Z" fill="#7918F2"/>
</svg>
