<svg width="241" height="56" viewBox="0 0 241 56" fill="none" xmlns="http://www.w3.org/2000/svg">
<path d="M21.608 45.64C23.192 45.64 24.656 45.304 26 44.632C27.344 43.96 28.64 42.928 29.888 41.536L36.8 48.736C34.88 50.944 32.528 52.672 29.744 53.92C26.96 55.12 24.056 55.72 21.032 55.72C18.2 55.72 15.536 55.216 13.04 54.208C10.592 53.2 8.456 51.808 6.632 50.032C4.856 48.256 3.44 46.168 2.384 43.768C1.376 41.368 0.872 38.776 0.872 35.992C0.872 33.208 1.376 30.616 2.384 28.216C3.44 25.768 4.856 23.68 6.632 21.952C8.456 20.176 10.592 18.784 13.04 17.776C15.536 16.72 18.2 16.192 21.032 16.192C24.152 16.192 27.128 16.816 29.96 18.064C32.792 19.312 35.192 21.04 37.16 23.248L30.032 30.664C28.688 29.176 27.32 28.072 25.928 27.352C24.536 26.632 23 26.272 21.32 26.272C18.824 26.272 16.712 27.208 14.984 29.08C13.304 30.952 12.464 33.256 12.464 35.992C12.464 38.728 13.328 41.032 15.056 42.904C16.832 44.728 19.016 45.64 21.608 45.64ZM38.2783 35.992C38.2783 33.256 38.8063 30.688 39.8623 28.288C40.9663 25.84 42.4303 23.728 44.2543 21.952C46.1263 20.176 48.3103 18.784 50.8063 17.776C53.3503 16.72 56.0623 16.192 58.9423 16.192C61.8223 16.192 64.5103 16.72 67.0063 17.776C69.5503 18.784 71.7343 20.176 73.5583 21.952C75.4303 23.728 76.8943 25.84 77.9503 28.288C79.0543 30.688 79.6063 33.256 79.6063 35.992C79.6063 38.728 79.0543 41.32 77.9503 43.768C76.8943 46.168 75.4303 48.256 73.5583 50.032C71.7343 51.808 69.5503 53.2 67.0063 54.208C64.5103 55.216 61.8223 55.72 58.9423 55.72C56.0623 55.72 53.3503 55.216 50.8063 54.208C48.3103 53.2 46.1263 51.808 44.2543 50.032C42.4303 48.256 40.9663 46.168 39.8623 43.768C38.8063 41.32 38.2783 38.728 38.2783 35.992ZM58.9423 45.64C61.5343 45.64 63.7183 44.704 65.4943 42.832C67.3183 40.96 68.2303 38.68 68.2303 35.992C68.2303 33.256 67.3183 30.952 65.4943 29.08C63.7183 27.208 61.5343 26.272 58.9423 26.272C56.3503 26.272 54.1423 27.208 52.3183 29.08C50.5423 30.952 49.6543 33.256 49.6543 35.992C49.6543 38.68 50.5423 40.96 52.3183 42.832C54.1423 44.704 56.3503 45.64 58.9423 45.64ZM90.9086 13.384C89.1326 13.384 87.6206 12.76 86.3726 11.512C85.1246 10.264 84.5006 8.752 84.5006 6.976C84.5006 5.2 85.1246 3.688 86.3726 2.44C87.6206 1.192 89.1326 0.567997 90.9086 0.567997C92.6846 0.567997 94.1966 1.192 95.4446 2.44C96.6926 3.688 97.3166 5.2 97.3166 6.976C97.3166 8.752 96.6926 10.264 95.4446 11.512C94.1966 12.76 92.6846 13.384 90.9086 13.384ZM96.7406 16.912V55H85.0766V16.912H96.7406ZM103.92 55V16.912H115.584V19.504C116.976 18.448 118.536 17.632 120.264 17.056C122.04 16.48 123.888 16.192 125.808 16.192C130.272 16.192 133.92 17.632 136.752 20.512C139.584 23.392 141 27.064 141 31.528V55H129.336V33.112C129.336 31.048 128.688 29.392 127.392 28.144C126.144 26.848 124.488 26.2 122.424 26.2C120.936 26.2 119.616 26.464 118.464 26.992C117.312 27.52 116.352 28.264 115.584 29.224V55H103.92ZM153.768 13.384C151.992 13.384 150.48 12.76 149.232 11.512C147.984 10.264 147.36 8.752 147.36 6.976C147.36 5.2 147.984 3.688 149.232 2.44C150.48 1.192 151.992 0.567997 153.768 0.567997C155.544 0.567997 157.056 1.192 158.304 2.44C159.552 3.688 160.176 5.2 160.176 6.976C160.176 8.752 159.552 10.264 158.304 11.512C157.056 12.76 155.544 13.384 153.768 13.384ZM159.6 16.912V55H147.936V16.912H159.6ZM164.98 55V46.864L182.692 26.632H165.124V16.912H197.812V25.048L180.028 45.28H198.388V55H164.98ZM237.629 49.96C235.229 51.976 232.757 53.44 230.213 54.352C227.717 55.264 224.885 55.72 221.717 55.72C218.837 55.72 216.125 55.216 213.581 54.208C211.037 53.2 208.829 51.808 206.957 50.032C205.133 48.256 203.669 46.168 202.565 43.768C201.509 41.32 200.981 38.728 200.981 35.992C200.981 33.256 201.485 30.688 202.493 28.288C203.549 25.84 204.965 23.728 206.741 21.952C208.517 20.176 210.605 18.784 213.005 17.776C215.453 16.768 218.069 16.264 220.853 16.264C223.637 16.264 226.205 16.792 228.557 17.848C230.909 18.904 232.925 20.344 234.605 22.168C236.333 23.992 237.677 26.2 238.637 28.792C239.597 31.336 240.077 34.096 240.077 37.072V39.952H212.933C213.701 41.728 214.901 43.192 216.533 44.344C218.165 45.448 220.085 46 222.293 46C223.877 46 225.317 45.76 226.613 45.28C227.909 44.752 229.013 44.032 229.925 43.12L237.629 49.96ZM220.637 25.768C218.717 25.768 217.061 26.296 215.669 27.352C214.277 28.408 213.293 29.896 212.717 31.816H228.629C228.005 29.992 226.973 28.528 225.533 27.424C224.141 26.32 222.509 25.768 220.637 25.768Z" fill="#FBFBFB"/>
</svg>
