<svg width="44" height="54" viewBox="0 0 44 54" fill="none" xmlns="http://www.w3.org/2000/svg">
<path d="M21.75 0L0 9.66667V24.1667C0 37.5792 9.28 50.1217 21.75 53.1667C34.22 50.1217 43.5 37.5792 43.5 24.1667V9.66667L21.75 0Z" fill="#D99BFF"/>
<path d="M31.75 24.5833C31.75 26.5611 31.1635 28.4945 30.0647 30.139C28.9659 31.7835 27.4041 33.0652 25.5768 33.8221C23.7496 34.579 21.7389 34.777 19.7991 34.3912C17.8593 34.0053 16.0775 33.0529 14.6789 31.6544C13.2804 30.2559 12.328 28.474 11.9422 26.5342C11.5563 24.5944 11.7543 22.5837 12.5112 20.7565C13.2681 18.9292 14.5498 17.3674 16.1943 16.2686C17.8388 15.1698 19.7722 14.5833 21.75 14.5833M28.9658 17.3675L21.1402 28.0196M16.0905 23.7921L21.1402 28.0196" stroke="white" stroke-width="3" stroke-linecap="round" stroke-linejoin="round"/>
</svg>
