<svg width="66" height="58" viewBox="0 0 66 58" fill="none" xmlns="http://www.w3.org/2000/svg">
<g clip-path="url(#clip0_128_23)">
<path d="M63.4374 25.375H60.0956C59.0987 23.1094 57.6487 21.1043 55.8589 19.4277L57.9999 10.875H54.3749C51.0444 10.875 48.0991 12.4043 46.1054 14.7605C45.2444 14.6359 44.3948 14.5 43.4999 14.5H28.9999C20.2319 14.5 12.9253 20.7305 11.2374 29H6.34364C4.66708 29 3.34168 27.4707 3.68153 25.7375C3.93075 24.4461 5.14286 23.5625 6.45692 23.5625H6.5702C6.94403 23.5625 7.24989 23.2566 7.24989 22.8828V20.6172C7.24989 20.2434 6.94403 19.9375 6.5702 19.9375C3.34168 19.9375 0.464341 22.2484 0.0565283 25.443C-0.441909 29.3172 2.57137 32.625 6.34364 32.625H10.8749C10.8749 38.5383 13.7522 43.7379 18.1249 47.0457V56.1875C18.1249 57.1844 18.9405 58 19.9374 58H27.1874C28.1843 58 28.9999 57.1844 28.9999 56.1875V50.75H43.4999V56.1875C43.4999 57.1844 44.3155 58 45.3124 58H52.5624C53.5593 58 54.3749 57.1844 54.3749 56.1875V47.0457C55.7116 46.0375 56.9011 44.848 57.9206 43.5H63.4374C64.4343 43.5 65.2499 42.6844 65.2499 41.6875V27.1875C65.2499 26.1906 64.4343 25.375 63.4374 25.375ZM48.9374 32.625C47.9405 32.625 47.1249 31.8094 47.1249 30.8125C47.1249 29.8156 47.9405 29 48.9374 29C49.9343 29 50.7499 29.8156 50.7499 30.8125C50.7499 31.8094 49.9343 32.625 48.9374 32.625ZM28.9999 10.875H43.4999C44.1116 10.875 44.712 10.9203 45.3011 10.9656C45.3011 10.9316 45.3124 10.909 45.3124 10.875C45.3124 4.87109 40.4413 0 34.4374 0C28.4335 0 23.5624 4.87109 23.5624 10.875C23.5624 11.1129 23.619 11.3395 23.6304 11.5773C25.3522 11.1355 27.1421 10.875 28.9999 10.875Z" fill="#D99BFF"/>
</g>
<defs>
<clipPath id="clip0_128_23">
<rect width="65.25" height="58" fill="white"/>
</clipPath>
</defs>
</svg>
