<svg width="49" height="45" viewBox="0 0 49 45" fill="none" xmlns="http://www.w3.org/2000/svg">
<path d="M23.0792 26.5229L30.8125 21.3271C31.5375 20.8438 31.9 20.1792 31.9 19.3333C31.9 18.4875 31.5375 17.8229 30.8125 17.3396L23.0792 12.1438C22.2736 11.5799 21.4479 11.5396 20.6021 12.0229C19.7562 12.5063 19.3333 13.2313 19.3333 14.1979V24.4688C19.3333 25.4354 19.7562 26.1604 20.6021 26.6437C21.4479 27.1271 22.2736 27.0868 23.0792 26.5229ZM4.10833 44.225C3.34306 44.9903 2.46661 45.1611 1.479 44.7373C0.493 44.3152 0 43.5604 0 42.4729V4.83333C0 3.50417 0.473667 2.36592 1.421 1.41858C2.36672 0.472861 3.50417 0 4.83333 0H43.5C44.8292 0 45.9674 0.472861 46.9148 1.41858C47.8605 2.36592 48.3333 3.50417 48.3333 4.83333V33.8333C48.3333 35.1625 47.8605 36.3008 46.9148 37.2481C45.9674 38.1938 44.8292 38.6667 43.5 38.6667H9.66667L4.10833 44.225Z" fill="#D99BFF"/>
</svg>
