<svg width="44" height="59" viewBox="0 0 44 59" fill="none" xmlns="http://www.w3.org/2000/svg">
<path d="M31.5231 2.33436C34.8291 3.99896 37.8219 6.83226 40.5885 10.901C42.3387 13.8437 43.3312 17.1749 43.4769 20.5957C43.6538 24.1482 42.8012 27.895 40.9452 31.8303L40.7799 32.1203L23.3132 57.1821C23.1417 57.4345 22.9111 57.6411 22.6414 57.7839C22.3717 57.9267 22.0712 58.0013 21.7661 58.0013C21.4609 58.0013 21.1604 57.9267 20.8907 57.7839C20.6211 57.6411 20.3904 57.4345 20.2189 57.1821L3.23072 32.8221C1.91853 30.7606 0.965419 28.4916 0.411924 26.1115C-0.710376 21.1061 0.411925 14.2041 4.37912 8.78686C8.25352 3.49726 13.6591 0.913362 19.1227 0.199962C23.2929 -0.348138 27.2659 0.188362 31.526 2.33436H31.5231ZM21.84 7.61816C14.0651 7.61816 7.80982 13.8822 7.80982 21.5498C7.80982 29.2145 14.0651 35.4814 21.84 35.4814C29.6149 35.4814 35.8702 29.2174 35.8702 21.5498C35.8702 13.8851 29.6149 7.61816 21.84 7.61816V7.61816ZM21.84 15.1002C25.4389 15.1002 28.336 18.0002 28.336 21.5498C28.333 22.3998 28.1625 23.2409 27.8344 24.025C27.5063 24.8092 27.027 25.521 26.4238 26.1199C25.8206 26.7188 25.1053 27.1931 24.3188 27.5155C23.5323 27.838 22.69 28.0024 21.84 27.9994C18.244 27.9994 15.344 25.0994 15.344 21.5498C15.344 18.0002 18.244 15.1002 21.84 15.1002Z" fill="#D99BFF"/>
</svg>
